<svg id="Layer_1" data-name="Layer 1" xmlns="http://www.w3.org/2000/svg" xmlns:xlink="http://www.w3.org/1999/xlink" viewBox="0 0 153.11 157.04"><defs><style>.cls-1{fill:none;}.cls-2{clip-path:url(#clip-path);}.cls-3{fill:url(#linear-gradient);}.cls-4{fill:#5e6b6a;}.cls-5{fill:#f3d2a2;}.cls-6{fill:#30333b;}.cls-7{fill:#e24131;}.cls-8{fill:#ca1918;}.cls-9{fill:#d8b993;}.cls-10{fill:#e5e4e5;}.cls-11{fill:#c99b4e;}.cls-12{fill:#b1b2ac;}.cls-13{fill:#fff;}</style><clipPath id="clip-path" transform="translate(-8.9 -7.75)"><path class="cls-1" d="M95,7.75c-3.63,0-8.54,2.95-8.54,2.95-.37-.77.38-2.66.38-2.66-2.67.93-4.07,4.21-4.07,4.21-5,1-6.29,4.86-6,4.86h0a9,9,0,0,1,2-.5,13.22,13.22,0,0,0-4.47,6.58A8.42,8.42,0,0,1,77,22.1c-2,2-2.75,6.4-2.75,6.4.36-.77,2.11-1.39,2.11-1.39-2.44,3.75-1.91,9.44-1.91,9.44a5.47,5.47,0,0,1,1.94-3,17,17,0,0,0,.42,5.36c.06-.73,1.8-2.22,1.8-2.22a11.42,11.42,0,0,0,.82,3.62c.2-.82,2-1.66,2-1.66a5.73,5.73,0,0,0,.39,2.28,11.77,11.77,0,0,0,7.58,2.64,10.74,10.74,0,0,0,1.17-.06l.11.71C89.92,45.18,57.12,55,57.12,55v.12L24.74,62.41s.06.33.16.85l-6.65,3.09S13,68.47,12.51,69.12,8.9,77.4,9.21,78.53a.29.29,0,0,0,.29.23c.83,0,3.15-2.58,4.55-4.16a19.91,19.91,0,0,1,4.75-3.48s1.54,5.48,2.13,5.54h0c.58,0,.91-2.64,1-4a8.3,8.3,0,0,1,2-4.1A11.55,11.55,0,0,1,26,67.54a7.12,7.12,0,0,0,1.31,2.52l0,0,.15.12,0,0,.14.08,0,0a.72.72,0,0,0,.19,0H28c2.06-.07,20.73-4,28.93-5.67l.49-.1,2.31-.49.12,0c.77,2,1.41,3.53,1.41,3.53l17.9-4.06C81.13,67.82,89.8,78.69,92.3,81.78l.17,1.56c-1.48,2-6.22,8.47-15.38,20.38a174,174,0,0,1-15.54,17.5c-3.2-7.77-7.84-19.2-7.88-20.27-.07-1.63,1.18-3.29,1-4.14s-3.73-2.23-7.85-6.16c-3.78-3.59-6.69-6.82-8.19-6.82a.81.81,0,0,0-.38.08c-1,.54,2.32,7,3.91,10.48l.17.38,0,0c.11.25.21.48.29.68l0,0c0,.08.06.15.08.22l0,.09.06.15,0,.08,0,.13,0,.06,0,.14a5.17,5.17,0,0,0,.49,1.49A18.42,18.42,0,0,1,45,101.53s0,.12,0,.2c.44,2.58,3.48,20.52,4,24.59.08.64.11,1.29.13,1.93h0c.09,3.54-.66,6.88,0,8.43,1.37,4.93,9,11.92,14.34,11.92a5.32,5.32,0,0,0,.81-.06,4.75,4.75,0,0,0,1.06-.29,4.44,4.44,0,0,0,.49-.24c.55-.31,1.21-.73,1.94-1.23,6.2-4.19,18-14.05,20.89-16.5l.58,0,.57-.05,1.67-.13h.12l1.7-.17.53,0L95,129.7l.53-.06,1.37-.18.18,0,1.46-.2.49-.08c.32,0,.64-.1,1-.15l.49-.07,1.08-.19c9.79-1.72,14.1-4,14.1-4s.16-.88.43-2.28c1.32-.36,3.39-.87,5.74-1.26,1.34-.22,2.77-.41,4.21-.5,1.07-.07,2.14-.2,3.15-.35,4-.61,7.33-1.65,8.15-1.65a.34.34,0,0,1,.17,0l.06.07,0,.12a8.35,8.35,0,0,1-1.34,2.34h0c-1.1,1-3.69,9.56-6.63,14.78s-8.35,8.84-9.2,9-1.27.35-1.7,3.56-4.23,9.51-4.43,10.73-.82,5.4.5,5.4h.07c.83-.09,6.71-6.34,12.64-12.51l.06-.05.68-.71.45-.47.58-.59c.19-.21.39-.41.59-.61l.45-.47,1-1,.32-.33.71-.73.06-.06h-1v-.91h2l.07-.07.34-.33.81-.82.14-.13.46-.45V143h1.43v.15l.13-.12.56-.51.23-.21.7-.62,2.3-1.95h0c2.36-2,4.84-4,6.93-5.76,2.94-2.42,5.11-4.17,5.11-4.17l-2.13-1.12c6.44-5.07,7.33-15.85,7.16-17.51s-1.92-4.71-3.2-5.45S136.16,103,136.16,103l-1.51-.85c-3.27-2.43-9-9.27-13.39-14.73h0c-.75-.93-1.45-1.82-2.1-2.65l6-.63s3.47-.74,4-1.73c-.69-.85-4.24-.86-4.24-.86l-7.56.8-.36-.47-.29-.38L116,78.73h0c5.25-10.71,1.53-26.63,1.53-26.63l5.16-13.2c3.43-3.35,6.45-17.49,6.33-18.64-.1-.92-.49-2.85-2.52-2.85a5.05,5.05,0,0,0-1.81.4c-3.64,1.4-13.37,12.61-13.37,12.61s-1.13,2.44-2.29,5.29l-6.93,6.67-2.17-.08h0c0-.16,0-.37-.1-.59,5-1.6,5.53-6.66,6-6.85a.27.27,0,0,1,.12,0c.46,0,1,1,1,1,1.66-1.56.54-5.22.78-5.69a.26.26,0,0,1,.23-.14c.31,0,.76.47.76.47.11-3-1.43-8.72-1.08-8.83h0c.43,0,2,1.25,2,1.25-.25-4.48-4.5-8.91-4.07-8.95h0a12.06,12.06,0,0,1,2.12.57C103.91,8.86,94,9.32,94.15,8.72s1-1,1-1Z"/></clipPath><linearGradient id="linear-gradient" x1="-971.17" y1="682.26" x2="-970.52" y2="682.26" gradientTransform="matrix(0, -1200.13, -1200.13, 0, 818872.14, -1164950.79)" gradientUnits="userSpaceOnUse"><stop offset="0" stop-color="#bc822a"/><stop offset="0.06" stop-color="#9b7739"/><stop offset="0.18" stop-color="#596158"/><stop offset="0.28" stop-color="#29516e"/><stop offset="0.36" stop-color="#0b477c"/><stop offset="0.41" stop-color="#004381"/><stop offset="0.55" stop-color="#00417d"/><stop offset="0.7" stop-color="#013970"/><stop offset="0.86" stop-color="#012d5b"/><stop offset="1" stop-color="#021e42"/></linearGradient></defs><g class="cls-2"><rect class="cls-3" width="148.82" height="157.04"/></g><path class="cls-4" d="M115.33,28.7s3.6,1.06,5.3,3c0,0-3.18-.63-4-.21s-1.27-2.76-1.27-2.76" transform="translate(-8.9 -7.75)"/><path class="cls-5" d="M51.45,66.08l-7.56,2.59s-4.8,1.37-5.29,1.9-3.93,6.94-3.76,8,3-1.53,4.6-3a17.55,17.55,0,0,1,4.5-2.61s.84,5,1.36,5,1.05-2.21,1.26-3.37a7.36,7.36,0,0,1,2.16-3.41A22.33,22.33,0,0,1,52,70Z" transform="translate(-8.9 -7.75)"/><path class="cls-4" d="M100.42,130.86S83.6,142.33,78.1,144.75c-4.7,2.06-12.74-6.33-13.6-11.5l.19-1.05L68,127.89l10.15-.48Z" transform="translate(-8.9 -7.75)"/><path class="cls-6" d="M78.1,144.75c5.5-2.42,22.32-13.89,22.32-13.89L90,129.24s-8.23,10.23-13.65,12.38-11.83-8.37-11.83-8.37c.86,5.17,8.9,13.56,13.6,11.5" transform="translate(-8.9 -7.75)"/><path class="cls-6" d="M64.5,133.25l14.27-5.84s-7.08-23.66-7-25.1,1.34-2.78,1.25-3.54-3.07-2.3-6.32-6.13-5.66-7.19-6.9-6.71,3,10.15,3,11.4S64,100.59,64.12,102s1.17,18.39,1.25,22.13-1.35,7.43-.87,9.1" transform="translate(-8.9 -7.75)"/><path class="cls-7" d="M79.66,62.31l1.8,8.13S53.57,73.36,52,73.09,50,65.81,50,65.81Z" transform="translate(-8.9 -7.75)"/><path class="cls-8" d="M81.46,70.44l-.58-2.63c-5.54,1.94-24.92,3.34-30,3.67.29.88.65,1.53,1.1,1.61,1.55.27,29.44-2.65,29.44-2.65" transform="translate(-8.9 -7.75)"/><path class="cls-4" d="M132.61,103.56,144,111.7s14.65,3.35,15.71,4.12a8.34,8.34,0,0,1,2.3,5.07c0,1.54-1.92,11.59-8.63,15.14s-11.11-6.61-11.11-6.61l.1-1.63s1.72-1.82,1.34-2.11-5.17.87-10.25.67a49.43,49.43,0,0,0-10.25.87s6.9-22.9,9.39-23.66" transform="translate(-8.9 -7.75)"/><path class="cls-6" d="M138.92,121.78a75.2,75.2,0,0,1-13.18-1.54l-.84,1.63c-1,3.1-1.68,5.35-1.68,5.35a49.43,49.43,0,0,1,10.25-.87c5.08.2,9.87-.95,10.25-.67s-1.34,2.11-1.34,2.11l-.1,1.63s.19.42.53,1.05a51,51,0,0,1,5.67-6.13s-2.13-2.35-9.56-2.56" transform="translate(-8.9 -7.75)"/><path class="cls-6" d="M142.38,127.79l13.51,9s-7.86,5.09-13.7,9.11S120.83,164,119.58,164s-.29-3.74,0-4.79,4.22-6.23,4.89-9,1-2.87,1.82-3,5.84-2.78,8.9-7.09,6.13-11.59,7.19-12.36" transform="translate(-8.9 -7.75)"/><path class="cls-7" d="M128.87,45.73s9.58-8.94,12.9-9.83,3.58,1.53,3.58,2.55-4,13.16-7.28,15.77S128.36,50,128.36,50Z" transform="translate(-8.9 -7.75)"/><path class="cls-8" d="M129,53.27s6.39-6.65,6.9-5.88S131,54.67,131,54.67Z" transform="translate(-8.9 -7.75)"/><path class="cls-6" d="M109.84,55.31a10.67,10.67,0,0,1-7.79-3.07,5.1,5.1,0,0,1-.13-2s-1.66.58-1.91,1.28a10.1,10.1,0,0,1-.39-3.26S98,49.37,97.84,50A14.92,14.92,0,0,1,98,45.26a4.89,4.89,0,0,0-2,2.45s.07-5,2.56-8.11c0,0-1.6.38-2,1,0,0,1-3.77,3-5.36a7.61,7.61,0,0,0-2.43.7,11.68,11.68,0,0,1,4.54-5.36,7.83,7.83,0,0,0-1.79.25c-.38.19,1.09-3.25,5.68-3.7,0,0,1.54-2.75,4-3.32,0,0-.83,1.59-.57,2.3,0,0,4.66-2.18,7.85-1.79,0,0-.76.25-1,.76s8.56,1,11.37,6.33a9.47,9.47,0,0,0-1.85-.71c-.38,0,2.94,4.28,2.75,8.24,0,0-1.35-1.34-1.66-1.28s.51,5.23.12,7.85c0,0-.57-.76-.83-.37s.39,3.7-1.21,4.91c0,0-.45-1.08-.89-1s-1.41,4.85-6.39,5.55a51.08,51.08,0,0,1-7.41.64" transform="translate(-8.9 -7.75)"/><path class="cls-7" d="M127.91,89.48s12.36,20.68,16.1,22.22a60.49,60.49,0,0,1-7.16-1.15c-1.18-.48-4.34-5.08-4.38-6a19.53,19.53,0,0,0-2,3.93c-1.34,3.16-6.51,20.5-6.51,20.5s-10.06,4-33.34,1.72l20.12-29.12Z" transform="translate(-8.9 -7.75)"/><path class="cls-8" d="M111.46,131.13c7.18-9.13,18.07-29.19,20.91-34.49-2.55-4-4.46-7.17-4.46-7.17l-5.64,4-18.65,18.43-13,18.78a122.74,122.74,0,0,0,20.81.47" transform="translate(-8.9 -7.75)"/><polygon class="cls-7" points="108.87 47.36 110.78 47.63 112.69 49.93 114.5 74.54 111.69 74.54 100.05 49.45 100.62 48.2 108.87 47.36"/><path class="cls-8" d="M109.52,56,109,57c.95,1.69,3.57,7.33,6.52,7.33,3.37,0,3.37-9,3.37-9l0-.06-1.12-.15Z" transform="translate(-8.9 -7.75)"/><path class="cls-6" d="M109.52,56s10.35,15.52,12.84,24.14c0,0-.77-17.44-2.68-24.72l8.62-6.7,9.77,5.55-5.75,11.12s1.92,15.32-4.41,24.14l3.26,5.36S116,122.23,104,128.56a61.22,61.22,0,0,1-9.39-.39s-3.64,3.64-5.75,4c0,0-18.2-1.92-19.54-5.75a150.79,150.79,0,0,0,22.8-19.54c11.3-11.88,15.9-17,15.9-17s-8.81-13.41-10.35-18L81.55,73.77s-2.68-9-2.49-11.5c0,0,29.7-5.55,30.46-6.32" transform="translate(-8.9 -7.75)"/><path class="cls-4" d="M105.1,81.79S107.69,87,111,88.62s2-.26,2-.26a22.32,22.32,0,0,1-7.9-6.57" transform="translate(-8.9 -7.75)"/><path class="cls-4" d="M109.7,82.67a58.57,58.57,0,0,0,3.3,5.69c.86,1,1.2-.17,1.2-.17a53.79,53.79,0,0,1-4.5-5.52" transform="translate(-8.9 -7.75)"/><path class="cls-4" d="M130.08,81.79s-2.22,6.38-4,7-1.89.1-1.89.1,2.37-.58,5.93-7.08" transform="translate(-8.9 -7.75)"/><path class="cls-4" d="M124.48,88.28A12.12,12.12,0,0,0,126.86,84s-2.25,3.74-3.46,4.16,1.08.09,1.08.09" transform="translate(-8.9 -7.75)"/><path class="cls-4" d="M116.17,87.77a32.93,32.93,0,0,1-4-9.34s3.91,8.49,5.27,9.34-1.26,0-1.26,0" transform="translate(-8.9 -7.75)"/><path class="cls-5" d="M128.87,45.73s2.4-.45,2.88,0,.76,8,.19,8.4-1.54-3-1.54-3-4.88,6.7-6.7,6.51,5.17-11.94,5.17-11.94" transform="translate(-8.9 -7.75)"/><path class="cls-9" d="M109.43,54.12l.09,1.83s2.16,3,5.46,2c2.26-.7,2.69-2,2.78-2.59a24.66,24.66,0,0,0-.38-3.46Z" transform="translate(-8.9 -7.75)"/><path class="cls-5" d="M105.21,47.23s1.82,8.34,8,7.86,4.89-9.56,4.89-9.56a8.44,8.44,0,0,0-3-1.17,4,4,0,0,0-1.63.28l.29-1.34s-3.55,1.34-4.79,2.78a6.55,6.55,0,0,1,.19-2.2c.29-.58-3.64,1.82-3.93,3.35" transform="translate(-8.9 -7.75)"/><path class="cls-10" d="M107.47,89.06v1.56s14.94-1.41,21.38.4l-.33-2.45s-13.34-2.9-21.05.49" transform="translate(-8.9 -7.75)"/><polygon class="cls-6" points="111.73 79.53 112.6 79.33 112.31 84.7 111.73 84.98 111.73 79.53"/><polygon class="cls-6" points="110.2 79.53 111.06 79.33 110.77 84.7 110.2 84.98 110.2 79.53"/><path class="cls-11" d="M124.08,91.66v2.73s-3.45-1.15-4.26-1-2.49,1.27-4.21,1a1.74,1.74,0,0,1-1.44-2.11c.19-.53.81-1.44,2.54-1.15s1.58.77,3,1.1,4.4-.57,4.4-.57" transform="translate(-8.9 -7.75)"/><path class="cls-10" d="M123.94,91.82h12.12s3.11.34,3.64,1.15H123.6Z" transform="translate(-8.9 -7.75)"/><path class="cls-12" d="M123.94,94.12h12.12s3.11-.33,3.64-1.15H123.6Z" transform="translate(-8.9 -7.75)"/><path class="cls-10" d="M112.78,66.1c-.89.32-1.4,3.26-1.4,3.26s-.32-2.24-1.73-2-1.15,2.55-1.15,2.55-.83-2.11-2-1.66c-.93.36-1,2-1,2.79l-.27-.56a1.47,1.47,0,0,0-1.82-.83c-.89.9,1.41,7.16,2.62,6.52.42-.22.53-.82.47-1.56a1.67,1.67,0,0,0,1.89,1c1.09-.06,1.15-1.79,1.15-1.79a2.3,2.3,0,0,0,1.54.71c.89,0,1.27-1.85,1.27-1.85a1.47,1.47,0,0,0,.64.51c.51.25,2-1.28,2-2.62s-1.28-4.73-2.17-4.41" transform="translate(-8.9 -7.75)"/><path class="cls-10" d="M123.64,69.68s-.2-4,.89-4.09,1.72,1.79,1.72,1.79.77-2.17,1.73-2,.87,2.13.87,2.13,1-1.53,1.81-1.45.64,3.73-.51,4.81-1.3-.38-1.3-.38-.49,2.17-1.57,2a1.27,1.27,0,0,1-1.15-1.09s-.45,1.15-1.34,1-1.15-2.68-1.15-2.68" transform="translate(-8.9 -7.75)"/><path class="cls-7" d="M114.11,107.75C115.86,103.92,94.5,128,78.25,130c-.46.05-.87.12-1.28.18a103.1,103.1,0,0,0,11.86,2c2.11-.39,5.75-4,5.75-4s17.79-16.59,19.53-20.42" transform="translate(-8.9 -7.75)"/><path class="cls-4" d="M107,29.12s-3.83,1.7-4.68,5.1l3.19-1.7s-4.31,3.62-5.13,5.74c0,0,3-2.34,4.28-2.34Z" transform="translate(-8.9 -7.75)"/><path class="cls-4" d="M102.36,40.39s-2.55,2.85-3,5.14c0,0,2.25-2.81,3.36-3s-.39-2.12-.39-2.12" transform="translate(-8.9 -7.75)"/><path class="cls-13" d="M103.73,71.13s.65,4.11,1.13,3.15a5.92,5.92,0,0,0,.35-2.55s1.41,3.8,2,2.69.22-3.29.22-3.29-.54-2.59-1-1.79-1,1.66-1,1.66-1.92-.84-1.75.13" transform="translate(-8.9 -7.75)"/><path class="cls-13" d="M109.43,68.86a8.21,8.21,0,0,1,.21,2.27c0,1.64,1,2.51,1.28,2.11s-.51-5.57-1.49-4.38" transform="translate(-8.9 -7.75)"/><path class="cls-13" d="M124.46,66.87a1.24,1.24,0,0,1,1.2.64,3.9,3.9,0,0,1,.32,1.43s.88-2.23,1.59-2.47.24,4.06-.32,4.54-1-1.51-1-1.51-.7,2.06-1.26,1.63a4.68,4.68,0,0,1-.48-4.26" transform="translate(-8.9 -7.75)"/><path class="cls-4" d="M60.33,89.82a1.63,1.63,0,0,0-.24-.79c.07.26.15.52.24.79" transform="translate(-8.9 -7.75)"/><path class="cls-4" d="M65.94,125.57s1.81-6.27,2.49-8.3c0-1.14-1.64-8.84-1.62-12.46a21,21,0,0,1,.37-4.78,39.26,39.26,0,0,1-5.87-7.3,32.94,32.94,0,0,1,1.47,4.6c0,1.24,1.24,3.26,1.34,4.69s1.17,18.39,1.25,22.13a16.19,16.19,0,0,1-.06,1.71Z" transform="translate(-8.9 -7.75)"/><path class="cls-4" d="M125.54,159.5c5.38-4.49,13-11.06,16.65-13.61,2.84-2,6.16-4.17,8.82-5.92l-6.49.62L134,149.42c-3.23,2.72-8.44,10.07-8.45,10.08" transform="translate(-8.9 -7.75)"/><path class="cls-7" d="M108.17,107.64S92,120.38,85.07,120.89l-3.61-.72s13.12-2.17,26.71-12.53" transform="translate(-8.9 -7.75)"/></svg>